<svg id="Layer_1" enable-background="new 0 0 100 100" viewBox="0 0 100 100" xmlns="http://www.w3.org/2000/svg"><path d="m97.4940186 47.2503014v34.4143715c0 8.7439575-7.0883789 15.8323288-15.8323364 15.8323288h-63.3293477c-8.7439575 0-15.8323364-7.0883713-15.8323364-15.8323288v-63.3293419c0-8.7439575 7.0883789-15.8323364 15.8323364-15.8323364h34.4143753c2.1859856 0 3.9580841 1.7720947 3.9580841 3.9580836s-1.7720985 3.9580841-3.9580841 3.9580841h-34.4143753c-4.3719788 0-7.9161682 3.5441895-7.9161682 7.9161701v63.3293381c0 4.3719788 3.5441895 7.9161682 7.9161682 7.9161682h63.3293457c4.3719788 0 7.9161682-3.5441895 7.9161682-7.9161682v-34.4143691c0-2.1859932 1.7720947-3.9580841 3.9580841-3.9580841 2.1859837 0 3.9580861 1.7720909 3.9580861 3.9580841zm-11.8742524-22.0279084 5.5808945 5.5808983 3.2060471-3.206049c4.098732-4.0626335 4.1279907-10.6787262.0653534-14.7774563-.0216904-.0218821-.0434647-.0436678-.0653534-.0653572l-7.1641312-7.1641283c-4.1406555-3.996213-10.7021561-3.996212-14.8428116 0l-3.2060471 3.206048 5.5808945 5.5808973zm-59.7007217 33.696106.2374878 11.0430565c0 2.1859818 1.7720947 3.9580765 3.9580841 3.9580765l11.0430527.2374802h.3166466c4.2013016-.069931 8.2024918-1.8070984 11.1222191-4.8288498l33.0232315-32.9044914-22.0465279-22.046524-32.9044915 33.0232275c-3.0676918 3.0444184-4.7797584 7.1961823-4.7497024 11.5180245z"/></svg>