<svg height="512" viewBox="0 0 24 24" width="512" xmlns="http://www.w3.org/2000/svg"><g id="Layer_2" data-name="Layer 2"><path d="m21.854 11.044a.751.751 0 0 1 -.739-.623 9.084 9.084 0 0 0 -.494-1.777.751.751 0 0 1 1.4-.545 10.794 10.794 0 0 1 .574 2.068.75.75 0 0 1 -.613.866.788.788 0 0 1 -.128.011zm-1.439-3.7a.75.75 0 0 1 -.632-.344 9.285 9.285 0 0 0 -1.149-1.446.75.75 0 1 1 1.076-1.045 10.818 10.818 0 0 1 1.335 1.679.75.75 0 0 1 -.63 1.156zm-2.772-2.851a.739.739 0 0 1 -.422-.131 9.433 9.433 0 0 0 -1.621-.885.75.75 0 1 1 .586-1.377 10.728 10.728 0 0 1 1.88 1.028.75.75 0 0 1 -.423 1.369zm-3.657-1.546a.841.841 0 0 1 -.148-.014 9.376 9.376 0 0 0 -1.838-.183.75.75 0 0 1 0-1.5 10.82 10.82 0 0 1 2.133.212.75.75 0 0 1 -.147 1.485z" fill="#232323"/><path d="m12 22.75a10.75 10.75 0 0 1 0-21.5.75.75 0 0 1 0 1.5 9.25 9.25 0 1 0 9.25 9.25.75.75 0 0 1 1.5 0 10.762 10.762 0 0 1 -10.75 10.75z" fill="#232323"/><path d="m16 15.75a.748.748 0 0 1 -.449-.15l-4-3a.75.75 0 0 1 -.3-.6v-5a.75.75 0 0 1 1.5 0v4.625l3.7 2.775a.75.75 0 0 1 -.451 1.35z" fill="#7fbde7"/></g></svg>