<svg id="Capa_1" enable-background="new 0 0 512 512" height="512" viewBox="0 0 512 512" width="512" xmlns="http://www.w3.org/2000/svg"><g><g><path d="m362 391h60v30h-60z" fill="#475e66"/></g><g id="Sequential_Process_2_"><g><path d="m459.5 457.211-21.211-21.211 31.289-30-31.289-30 21.211-21.211 52.5 51.211z" fill="#475e66"/></g><g><path d="m21.211 157.211-21.211-21.211 30-30-30-30 21.211-21.211 52.5 51.211z" fill="#5a7380"/></g><g><path d="m422 271h-60v-30h60c33.076 0 60-26.909 60-60s-26.924-60-60-60h-60v-30h60c49.629 0 90 40.371 90 90s-40.371 90-90 90z" fill="#475e66"/></g><g><path d="m150 421h-60c-49.629 0-90-40.371-90-90s40.371-90 90-90h60v30h-60c-33.076 0-60 26.909-60 60s26.924 60 60 60h60z" fill="#5a7380"/></g><g><path d="m90 91h60v30h-60z" fill="#5a7380"/></g></g><g><path d="m392 166h-272v-120h272z" fill="#d1baff"/></g><g><path d="m392 316h-272v-120h272z" fill="#d1baff"/></g><g><path d="m392 466h-272v-120h272z" fill="#d1baff"/></g><g fill="#a9f"><path d="m256 46h136v120h-136z"/><path d="m256 196h136v120h-136z"/><path d="m256 346h136v120h-136z"/></g></g></svg>